<?xml version="1.0" encoding="UTF-8" standalone="no"?>
<!-- Created with Inkscape (http://www.inkscape.org/) -->

<svg
   xmlns:dc="http://purl.org/dc/elements/1.1/"
   xmlns:cc="http://creativecommons.org/ns#"
   xmlns:rdf="http://www.w3.org/1999/02/22-rdf-syntax-ns#"
   xmlns:svg="http://www.w3.org/2000/svg"
   xmlns="http://www.w3.org/2000/svg"
   xmlns:sodipodi="http://sodipodi.sourceforge.net/DTD/sodipodi-0.dtd"
   xmlns:inkscape="http://www.inkscape.org/namespaces/inkscape"
   width="1500"
   height="500"
   id="svg2"
   version="1.1"
   inkscape:version="0.48.4 r9939"
   sodipodi:docname="4IM.eps">
  <defs
     id="defs4" />
  <sodipodi:namedview
     id="base"
     pagecolor="#ffffff"
     bordercolor="#666666"
     borderopacity="1.0"
     inkscape:pageopacity="0.0"
     inkscape:pageshadow="2"
     inkscape:zoom="0.7"
     inkscape:cx="695.65885"
     inkscape:cy="155.69303"
     inkscape:document-units="px"
     inkscape:current-layer="layer1"
     showgrid="false"
     inkscape:window-width="1879"
     inkscape:window-height="1056"
     inkscape:window-x="1641"
     inkscape:window-y="35"
     inkscape:window-maximized="1" />
  <metadata
     id="metadata7">
    <rdf:RDF>
      <cc:Work
         rdf:about="">
        <dc:format>image/svg+xml</dc:format>
        <dc:type
           rdf:resource="http://purl.org/dc/dcmitype/StillImage" />
        <dc:title></dc:title>
      </cc:Work>
    </rdf:RDF>
  </metadata>
  <g
     inkscape:label="Layer 1"
     inkscape:groupmode="layer"
     id="layer1"
     transform="translate(0,-552.36218)">
    <g
       id="g4678"
       transform="translate(5.664905,-75.943416)">
      <path
         transform="matrix(0.68559687,0,0,0.3499296,88.17942,681.8252)"
         d="m 215.71429,407.71933 c 0,55.03123 -44.13193,99.64286 -98.57143,99.64286 -54.439495,0 -98.571426,-44.61163 -98.571426,-99.64286 0,-55.03123 44.131931,-99.64286 98.571426,-99.64286 54.4395,0 98.57143,44.61163 98.57143,99.64286 z"
         sodipodi:ry="99.64286"
         sodipodi:rx="98.571426"
         sodipodi:cy="407.71933"
         sodipodi:cx="117.14286"
         id="path2987"
         style="fill:#d3d3d3;fill-opacity:1;fill-rule:evenodd;stroke:#000000;stroke-width:5.10405397;stroke-linecap:butt;stroke-linejoin:miter;stroke-miterlimit:4;stroke-opacity:1;stroke-dasharray:none"
         sodipodi:type="arc" />
      <path
         sodipodi:type="arc"
         style="fill:#726969;fill-opacity:1;fill-rule:evenodd;stroke:#000000;stroke-width:8.1796093;stroke-linecap:butt;stroke-linejoin:miter;stroke-miterlimit:4;stroke-opacity:1;stroke-dasharray:none"
         id="path4560"
         sodipodi:cx="117.14286"
         sodipodi:cy="407.71933"
         sodipodi:rx="98.571426"
         sodipodi:ry="99.64286"
         d="m 215.71429,407.71933 c 0,55.03123 -44.13193,99.64286 -98.57143,99.64286 -54.439495,0 -98.571426,-44.61163 -98.571426,-99.64286 0,-55.03123 44.131931,-99.64286 98.571426,-99.64286 54.4395,0 98.57143,44.61163 98.57143,99.64286 z"
         transform="matrix(0.40738073,0,0,0.22930546,142.99381,799.44383)" />
      <path
         sodipodi:type="arc"
         style="fill:#d3d3d3;fill-opacity:1;fill-rule:evenodd;stroke:#000000;stroke-width:5.10405397;stroke-linecap:butt;stroke-linejoin:miter;stroke-miterlimit:4;stroke-opacity:1;stroke-dasharray:none"
         id="path4562"
         sodipodi:cx="117.14286"
         sodipodi:cy="407.71933"
         sodipodi:rx="98.571426"
         sodipodi:ry="99.64286"
         d="m 215.71429,407.71933 c 0,55.03123 -44.13193,99.64286 -98.57143,99.64286 -54.439495,0 -98.571426,-44.61163 -98.571426,-99.64286 0,-55.03123 44.131931,-99.64286 98.571426,-99.64286 54.4395,0 98.57143,44.61163 98.57143,99.64286 z"
         transform="matrix(0.68559687,0,0,0.3499296,254.17942,681.8252)" />
      <path
         inkscape:connector-curvature="0"
         id="path4564"
         d="m 252.33509,744.61158 0,207.80567"
         style="fill:none;stroke:#000000;stroke-width:2.13810468;stroke-linecap:butt;stroke-linejoin:miter;stroke-miterlimit:4;stroke-opacity:1;stroke-dasharray:none" />
      <path
         style="fill:none;stroke:#000000;stroke-width:2.13810468;stroke-linecap:butt;stroke-linejoin:miter;stroke-miterlimit:4;stroke-opacity:1;stroke-dasharray:none"
         d="m 416.33509,744.61158 0,207.80567"
         id="path4566"
         inkscape:connector-curvature="0" />
      <path
         sodipodi:type="arc"
         style="fill:#726969;fill-opacity:1;fill-rule:evenodd;stroke:#000000;stroke-width:5.10405397;stroke-linecap:butt;stroke-linejoin:miter;stroke-miterlimit:4;stroke-opacity:1;stroke-dasharray:none"
         id="path4568"
         sodipodi:cx="117.14286"
         sodipodi:cy="407.71933"
         sodipodi:rx="98.571426"
         sodipodi:ry="99.64286"
         d="m 215.71429,407.71933 c 0,55.03123 -44.13193,99.64286 -98.57143,99.64286 -54.439495,0 -98.571426,-44.61163 -98.571426,-99.64286 0,-55.03123 44.131931,-99.64286 98.571426,-99.64286 54.4395,0 98.57143,44.61163 98.57143,99.64286 z"
         transform="matrix(0.68559687,0,0,0.3499296,418.17942,681.8252)" />
      <path
         transform="matrix(0.40738073,0,0,0.22930546,294.42238,730.8724)"
         d="m 215.71429,407.71933 c 0,55.03123 -44.13193,99.64286 -98.57143,99.64286 -54.439495,0 -98.571426,-44.61163 -98.571426,-99.64286 0,-55.03123 44.131931,-99.64286 98.571426,-99.64286 54.4395,0 98.57143,44.61163 98.57143,99.64286 z"
         sodipodi:ry="99.64286"
         sodipodi:rx="98.571426"
         sodipodi:cy="407.71933"
         sodipodi:cx="117.14286"
         id="path4570"
         style="fill:#726969;fill-opacity:1;fill-rule:evenodd;stroke:#000000;stroke-width:8.1796093;stroke-linecap:butt;stroke-linejoin:miter;stroke-miterlimit:4;stroke-opacity:1;stroke-dasharray:none"
         sodipodi:type="arc" />
      <path
         transform="matrix(0.68559687,0,0,0.3499296,584.17942,681.8252)"
         d="m 215.71429,407.71933 c 0,55.03123 -44.13193,99.64286 -98.57143,99.64286 -54.439495,0 -98.571426,-44.61163 -98.571426,-99.64286 0,-55.03123 44.131931,-99.64286 98.571426,-99.64286 54.4395,0 98.57143,44.61163 98.57143,99.64286 z"
         sodipodi:ry="99.64286"
         sodipodi:rx="98.571426"
         sodipodi:cy="407.71933"
         sodipodi:cx="117.14286"
         id="path4572"
         style="fill:#9f9f9f;fill-opacity:1;fill-rule:evenodd;stroke:#000000;stroke-width:5.10405397;stroke-linecap:butt;stroke-linejoin:miter;stroke-miterlimit:4;stroke-opacity:1;stroke-dasharray:none"
         sodipodi:type="arc" />
      <path
         style="fill:none;stroke:#000000;stroke-width:2.13810468;stroke-linecap:butt;stroke-linejoin:miter;stroke-miterlimit:4;stroke-opacity:1;stroke-dasharray:none"
         d="m 582.33509,744.61158 0,207.80567"
         id="path4574"
         inkscape:connector-curvature="0" />
      <path
         inkscape:connector-curvature="0"
         id="path4576"
         d="m 746.33509,744.61158 0,207.80567"
         style="fill:none;stroke:#000000;stroke-width:2.13810468;stroke-linecap:butt;stroke-linejoin:miter;stroke-miterlimit:4;stroke-opacity:1;stroke-dasharray:none" />
      <path
         sodipodi:type="arc"
         style="fill:#d3d3d3;fill-opacity:1;fill-rule:evenodd;stroke:#000000;stroke-width:5.10405397;stroke-linecap:butt;stroke-linejoin:miter;stroke-miterlimit:4;stroke-opacity:1;stroke-dasharray:none"
         id="path4578"
         sodipodi:cx="117.14286"
         sodipodi:cy="407.71933"
         sodipodi:rx="98.571426"
         sodipodi:ry="99.64286"
         d="m 215.71429,407.71933 c 0,55.03123 -44.13193,99.64286 -98.57143,99.64286 -54.439495,0 -98.571426,-44.61163 -98.571426,-99.64286 0,-55.03123 44.131931,-99.64286 98.571426,-99.64286 54.4395,0 98.57143,44.61163 98.57143,99.64286 z"
         transform="matrix(0.68559687,0,0,0.3499296,748.17942,681.8252)" />
      <path
         transform="matrix(0.68559687,0,0,0.3499296,914.17942,681.8252)"
         d="m 215.71429,407.71933 c 0,55.03123 -44.13193,99.64286 -98.57143,99.64286 -54.439495,0 -98.571426,-44.61163 -98.571426,-99.64286 0,-55.03123 44.131931,-99.64286 98.571426,-99.64286 54.4395,0 98.57143,44.61163 98.57143,99.64286 z"
         sodipodi:ry="99.64286"
         sodipodi:rx="98.571426"
         sodipodi:cy="407.71933"
         sodipodi:cx="117.14286"
         id="path4582"
         style="fill:#d3d3d3;fill-opacity:1;fill-rule:evenodd;stroke:#000000;stroke-width:5.10405397;stroke-linecap:butt;stroke-linejoin:miter;stroke-miterlimit:4;stroke-opacity:1;stroke-dasharray:none"
         sodipodi:type="arc" />
      <path
         style="fill:none;stroke:#000000;stroke-width:2.13810468;stroke-linecap:butt;stroke-linejoin:miter;stroke-miterlimit:4;stroke-opacity:1;stroke-dasharray:none"
         d="m 912.33509,744.61158 0,207.80567"
         id="path4584"
         inkscape:connector-curvature="0" />
      <path
         inkscape:connector-curvature="0"
         id="path4586"
         d="m 1076.3351,744.61158 0,207.80567"
         style="fill:none;stroke:#000000;stroke-width:2.13810468;stroke-linecap:butt;stroke-linejoin:miter;stroke-miterlimit:4;stroke-opacity:1;stroke-dasharray:none" />
      <path
         transform="matrix(0.68559687,0,0,0.3499296,1078.1794,681.8252)"
         d="m 215.71429,407.71933 c 0,55.03123 -44.13193,99.64286 -98.57143,99.64286 -54.439495,0 -98.571426,-44.61163 -98.571426,-99.64286 0,-55.03123 44.131931,-99.64286 98.571426,-99.64286 54.4395,0 98.57143,44.61163 98.57143,99.64286 z"
         sodipodi:ry="99.64286"
         sodipodi:rx="98.571426"
         sodipodi:cy="407.71933"
         sodipodi:cx="117.14286"
         id="path4588"
         style="fill:#726969;fill-opacity:1;fill-rule:evenodd;stroke:#000000;stroke-width:5.10405397;stroke-linecap:butt;stroke-linejoin:miter;stroke-miterlimit:4;stroke-opacity:1;stroke-dasharray:none"
         sodipodi:type="arc" />
      <path
         sodipodi:type="arc"
         style="fill:#d3d3d3;fill-opacity:1;fill-rule:evenodd;stroke:#000000;stroke-width:8.1796093;stroke-linecap:butt;stroke-linejoin:miter;stroke-miterlimit:4;stroke-opacity:1;stroke-dasharray:none"
         id="path4590"
         sodipodi:cx="117.14286"
         sodipodi:cy="407.71933"
         sodipodi:rx="98.571426"
         sodipodi:ry="99.64286"
         d="m 215.71429,407.71933 c 0,55.03123 -44.13193,99.64286 -98.57143,99.64286 -54.439495,0 -98.571426,-44.61163 -98.571426,-99.64286 0,-55.03123 44.131931,-99.64286 98.571426,-99.64286 54.4395,0 98.57143,44.61163 98.57143,99.64286 z"
         transform="matrix(0.40738073,0,0,0.22930546,1134.509,724.69254)" />
      <path
         sodipodi:type="arc"
         style="fill:#d3d3d3;fill-opacity:1;fill-rule:evenodd;stroke:#000000;stroke-width:5.10405397;stroke-linecap:butt;stroke-linejoin:miter;stroke-miterlimit:4;stroke-opacity:1;stroke-dasharray:none"
         id="path4592"
         sodipodi:cx="117.14286"
         sodipodi:cy="407.71933"
         sodipodi:rx="98.571426"
         sodipodi:ry="99.64286"
         d="m 215.71429,407.71933 c 0,55.03123 -44.13193,99.64286 -98.57143,99.64286 -54.439495,0 -98.571426,-44.61163 -98.571426,-99.64286 0,-55.03123 44.131931,-99.64286 98.571426,-99.64286 54.4395,0 98.57143,44.61163 98.57143,99.64286 z"
         transform="matrix(0.68559687,0,0,0.3499296,1244.1794,681.8252)" />
      <path
         inkscape:connector-curvature="0"
         id="path4594"
         d="m 1242.3351,744.61158 0,207.80567"
         style="fill:none;stroke:#000000;stroke-width:2.13810468;stroke-linecap:butt;stroke-linejoin:miter;stroke-miterlimit:4;stroke-opacity:1;stroke-dasharray:none" />
      <path
         style="fill:none;stroke:#000000;stroke-width:2.13810468;stroke-linecap:butt;stroke-linejoin:miter;stroke-miterlimit:4;stroke-opacity:1;stroke-dasharray:none"
         d="m 1406.3351,744.61158 0,207.80567"
         id="path4596"
         inkscape:connector-curvature="0" />
      <path
         style="fill:none;stroke:#000000;stroke-width:2.13810468;stroke-linecap:butt;stroke-linejoin:miter;stroke-miterlimit:4;stroke-opacity:1;stroke-dasharray:none"
         d="m 82.33509,744.61158 0,207.80567"
         id="path4598"
         inkscape:connector-curvature="0" />
      <path
         sodipodi:type="arc"
         style="fill:#726969;fill-opacity:1;fill-rule:evenodd;stroke:#000000;stroke-width:8.1796093;stroke-linecap:butt;stroke-linejoin:miter;stroke-miterlimit:4;stroke-opacity:1;stroke-dasharray:none"
         id="path4600"
         sodipodi:cx="117.14286"
         sodipodi:cy="407.71933"
         sodipodi:rx="98.571426"
         sodipodi:ry="99.64286"
         d="m 215.71429,407.71933 c 0,55.03123 -44.13193,99.64286 -98.57143,99.64286 -54.439495,0 -98.571426,-44.61163 -98.571426,-99.64286 0,-55.03123 44.131931,-99.64286 98.571426,-99.64286 54.4395,0 98.57143,44.61163 98.57143,99.64286 z"
         transform="matrix(0.40738073,0,0,0.22930546,294.42238,730.8724)" />
      <text
         sodipodi:linespacing="125%"
         id="text4602"
         y="1008.0765"
         x="92.85714"
         style="font-size:24px;font-style:normal;font-weight:normal;line-height:125%;letter-spacing:0px;word-spacing:0px;fill:#000000;fill-opacity:1;stroke:none;font-family:Sans"
         xml:space="preserve"><tspan
           y="1008.0765"
           x="92.85714"
           id="tspan4604"
           sodipodi:role="line">disjoint</tspan></text>
      <text
         xml:space="preserve"
         style="font-size:24px;font-style:normal;font-weight:normal;line-height:125%;letter-spacing:0px;word-spacing:0px;fill:#000000;fill-opacity:1;stroke:none;font-family:Sans"
         x="258.85715"
         y="1008.0765"
         id="text4606"
         sodipodi:linespacing="125%"><tspan
           sodipodi:role="line"
           id="tspan4608"
           x="258.85715"
           y="1008.0765">contains</tspan></text>
      <text
         xml:space="preserve"
         style="font-size:24px;font-style:normal;font-weight:normal;line-height:125%;letter-spacing:0px;word-spacing:0px;fill:#000000;fill-opacity:1;stroke:none;font-family:Sans"
         x="452.85715"
         y="1008.0765"
         id="text4610"
         sodipodi:linespacing="125%"><tspan
           sodipodi:role="line"
           id="tspan4612"
           x="452.85715"
           y="1008.0765">inside</tspan></text>
      <text
         sodipodi:linespacing="125%"
         id="text4614"
         y="1008.0765"
         x="616.85718"
         style="font-size:24px;font-style:normal;font-weight:normal;line-height:125%;letter-spacing:0px;word-spacing:0px;fill:#000000;fill-opacity:1;stroke:none;font-family:Sans"
         xml:space="preserve"><tspan
           y="1008.0765"
           x="616.85718"
           id="tspan4616"
           sodipodi:role="line">equal</tspan></text>
      <text
         xml:space="preserve"
         style="font-size:24px;font-style:normal;font-weight:normal;line-height:125%;letter-spacing:0px;word-spacing:0px;fill:#000000;fill-opacity:1;stroke:none;font-family:Sans"
         x="752.85718"
         y="1008.0765"
         id="text4618"
         sodipodi:linespacing="125%"><tspan
           sodipodi:role="line"
           id="tspan4620"
           x="752.85718"
           y="1008.0765">meet</tspan></text>
      <text
         sodipodi:linespacing="125%"
         id="text4622"
         y="1008.0765"
         x="918.85718"
         style="font-size:24px;font-style:normal;font-weight:normal;line-height:125%;letter-spacing:0px;word-spacing:0px;fill:#000000;fill-opacity:1;stroke:none;font-family:Sans"
         xml:space="preserve"><tspan
           y="1008.0765"
           x="918.85718"
           id="tspan4624"
           sodipodi:role="line">covers</tspan></text>
      <text
         sodipodi:linespacing="125%"
         id="text4626"
         y="1008.0765"
         x="1084.8572"
         style="font-size:24px;font-style:normal;font-weight:normal;line-height:125%;letter-spacing:0px;word-spacing:0px;fill:#000000;fill-opacity:1;stroke:none;font-family:Sans"
         xml:space="preserve"><tspan
           y="1008.0765"
           x="1084.8572"
           id="tspan4628"
           sodipodi:role="line">coveredBy</tspan></text>
      <text
         xml:space="preserve"
         style="font-size:24px;font-style:normal;font-weight:normal;line-height:125%;letter-spacing:0px;word-spacing:0px;fill:#000000;fill-opacity:1;stroke:none;font-family:Sans"
         x="1250.8572"
         y="1008.0765"
         id="text4630"
         sodipodi:linespacing="125%"><tspan
           sodipodi:role="line"
           id="tspan4632"
           x="1250.8572"
           y="1008.0765">overlap</tspan></text>
      <path
         inkscape:transform-center-y="24.098652"
         inkscape:transform-center-x="180"
         transform="matrix(0.40738073,0,0,0.22930546,1302.9938,765.15812)"
         d="m 215.71429,407.71933 c 0,55.03123 -44.13193,99.64286 -98.57143,99.64286 -54.439495,0 -98.571426,-44.61163 -98.571426,-99.64286 0,-55.03123 44.131931,-99.64286 98.571426,-99.64286 54.4395,0 98.57143,44.61163 98.57143,99.64286 z"
         sodipodi:ry="99.64286"
         sodipodi:rx="98.571426"
         sodipodi:cy="407.71933"
         sodipodi:cx="117.14286"
         id="path4636"
         style="fill:#726969;fill-opacity:1;fill-rule:evenodd;stroke:#000000;stroke-width:8.1796093;stroke-linecap:butt;stroke-linejoin:miter;stroke-miterlimit:4;stroke-opacity:1;stroke-dasharray:none"
         sodipodi:type="arc" />
      <path
         sodipodi:type="arc"
         style="fill:#726969;fill-opacity:1;fill-rule:evenodd;stroke:#000000;stroke-width:8.1796093;stroke-linecap:butt;stroke-linejoin:miter;stroke-miterlimit:4;stroke-opacity:1;stroke-dasharray:none"
         id="path4640"
         sodipodi:cx="117.14286"
         sodipodi:cy="407.71933"
         sodipodi:rx="98.571426"
         sodipodi:ry="99.64286"
         d="m 215.71429,407.71933 c 0,55.03123 -44.13193,99.64286 -98.57143,99.64286 -54.439495,0 -98.571426,-44.61163 -98.571426,-99.64286 0,-55.03123 44.131931,-99.64286 98.571426,-99.64286 54.4395,0 98.57143,44.61163 98.57143,99.64286 z"
         transform="matrix(0.40738073,0,0,0.22930546,932.32157,741.66719)" />
      <path
         sodipodi:type="arc"
         style="fill:#726969;fill-opacity:1;fill-rule:evenodd;stroke:#000000;stroke-width:8.1796093;stroke-linecap:butt;stroke-linejoin:miter;stroke-miterlimit:4;stroke-opacity:1;stroke-dasharray:none"
         id="path4640-4"
         sodipodi:cx="117.14286"
         sodipodi:cy="407.71933"
         sodipodi:rx="98.571426"
         sodipodi:ry="99.64286"
         d="m 215.71429,407.71933 c 0,55.03123 -44.13193,99.64286 -98.57143,99.64286 -54.439495,0 -98.571426,-44.61163 -98.571426,-99.64286 0,-55.03123 44.131931,-99.64286 98.571426,-99.64286 54.4395,0 98.57143,44.61163 98.57143,99.64286 z"
         transform="matrix(0.40738073,0,0,0.22930546,786.20867,788.65921)" />
      <path
         sodipodi:type="arc"
         style="fill:#d3d3d3;fill-opacity:1;fill-rule:evenodd;stroke:#000000;stroke-width:8.1796093;stroke-linecap:butt;stroke-linejoin:miter;stroke-miterlimit:4;stroke-opacity:1;stroke-dasharray:none"
         id="path4640-1"
         sodipodi:cx="117.14286"
         sodipodi:cy="407.71933"
         sodipodi:rx="98.571426"
         sodipodi:ry="99.64286"
         d="m 215.71429,407.71933 c 0,55.03123 -44.13193,99.64286 -98.57143,99.64286 -54.439495,0 -98.571426,-44.61163 -98.571426,-99.64286 0,-55.03123 44.131931,-99.64286 98.571426,-99.64286 54.4395,0 98.57143,44.61163 98.57143,99.64286 z"
         transform="matrix(0.40738073,0,0,0.22930546,456.56398,731.72705)" />
    </g>
  </g>
</svg>
